<?xml version="1.0" standalone="no"?>
<!DOCTYPE svg PUBLIC "-//W3C//DTD SVG 20010904//EN"
 "http://www.w3.org/TR/2001/REC-SVG-20010904/DTD/svg10.dtd">
<svg version="1.0" xmlns="http://www.w3.org/2000/svg"
 width="700.000000pt" height="700.000000pt" viewBox="0 0 700.000000 700.000000"
 preserveAspectRatio="xMidYMid meet">
<metadata>
Created by potrace 1.11, written by Peter Selinger 2001-2013
</metadata>
<g transform="translate(0.000000,700.000000) scale(0.100000,-0.100000)"
fill="#000000" stroke="none">
<path d="M1649 5851 l-29 -29 0 -251 0 -251 -100 0 c-107 0 -150 -13 -170 -49
-6 -13 -10 -191 -10 -505 l0 -486 1220 0 1220 0 -13 33 c-7 17 -94 243 -193
501 -162 423 -182 471 -209 488 -28 17 -65 18 -602 18 l-573 0 0 251 0 251
-29 29 -29 29 -227 0 -227 0 -29 -29z m350 -832 c178 -38 242 -261 110 -386
-128 -122 -341 -56 -378 117 -29 135 63 257 211 279 4 1 30 -4 57 -10z m992
-19 c19 -10 52 -37 72 -59 61 -67 73 -152 33 -236 -38 -83 -115 -135 -197
-135 -201 0 -309 221 -182 370 74 86 177 108 274 60z"/>
<path d="M4684 4240 l-188 -140 -1868 0 c-2051 0 -1911 4 -1938 -60 -11 -27 0
-80 126 -585 76 -305 143 -555 149 -555 5 0 64 27 130 60 156 78 218 94 370
94 146 1 215 -18 380 -103 120 -62 190 -81 295 -81 105 0 175 19 295 81 167
86 233 104 385 104 150 0 225 -20 368 -96 155 -83 298 -107 440 -74 35 8 119
42 185 75 154 74 223 93 357 94 142 1 233 -21 367 -91 236 -121 399 -123 622
-9 58 29 137 63 174 75 94 29 232 36 332 18 44 -8 81 -14 81 -13 7 6 565 1212
570 1231 3 14 1 39 -6 56 -26 61 -3 59 -754 59 l-685 0 -187 -140z"/>
<path d="M1295 2864 c-42 -9 -119 -39 -192 -75 -156 -76 -187 -87 -281 -95
-91 -8 -107 -15 -128 -56 -19 -37 -12 -88 15 -113 65 -58 299 -21 454 72 91
55 160 76 268 81 129 6 190 -9 323 -78 153 -80 229 -100 382 -100 156 0 243
22 380 95 125 67 191 85 304 85 111 0 167 -16 314 -89 155 -78 210 -92 361
-92 153 0 238 21 382 96 140 72 210 89 333 82 103 -5 175 -27 265 -80 119 -71
230 -99 385 -98 150 0 236 23 384 100 136 70 197 85 326 78 108 -5 166 -23
260 -77 128 -74 312 -119 409 -99 66 14 98 78 67 137 -20 39 -44 52 -93 52
-81 1 -179 31 -308 95 -163 80 -249 100 -405 92 -136 -7 -199 -25 -345 -98
-141 -70 -236 -94 -335 -84 -97 9 -133 21 -265 86 -162 80 -219 94 -380 94
-156 -1 -198 -11 -375 -96 -147 -70 -244 -94 -340 -84 -97 9 -133 21 -275 91
-163 80 -249 99 -410 91 -132 -6 -231 -35 -345 -102 -88 -51 -159 -73 -255
-81 -108 -9 -198 15 -350 91 -96 48 -151 70 -208 80 -98 19 -230 18 -322 -1z"/>
<path d="M1370 2500 c-95 -10 -174 -35 -276 -90 -119 -63 -171 -80 -272 -90
-66 -6 -88 -12 -107 -30 -51 -48 -38 -134 25 -160 38 -16 147 -9 240 15 58 15
102 34 250 112 68 35 181 56 270 49 93 -6 133 -20 285 -96 135 -67 224 -90
355 -90 131 0 220 23 355 90 151 76 188 88 283 96 112 9 201 -13 347 -86 159
-80 218 -95 375 -95 156 0 215 15 375 94 132 65 168 77 265 86 96 10 193 -14
340 -84 177 -85 219 -95 375 -96 156 0 244 22 372 90 225 122 372 123 608 6
66 -33 147 -67 180 -76 89 -23 207 -31 245 -15 63 26 76 112 25 160 -19 18
-41 24 -109 30 -106 10 -131 18 -270 89 -140 71 -224 92 -370 92 -142 0 -229
-22 -373 -95 -130 -65 -205 -86 -305 -86 -100 0 -168 19 -311 89 -153 74 -225
92 -370 92 -143 0 -230 -22 -374 -95 -130 -65 -205 -86 -305 -86 -100 0 -173
21 -298 84 -125 64 -188 84 -298 96 -165 18 -330 -18 -472 -101 -103 -60 -158
-74 -290 -74 -132 0 -187 14 -290 74 -93 55 -199 90 -304 101 -50 5 -95 9
-101 8 -5 0 -39 -4 -75 -8z"/>
</g>
</svg>
